<svg xmlns="http://www.w3.org/2000/svg" viewBox="0 0 512 512">
  <rect width="512" height="512" rx="96" fill="#FF7A30"/>
  <ellipse cx="256" cy="296" rx="110" ry="82" fill="#4a3728"/>
  <ellipse cx="268" cy="308" rx="68" ry="54" fill="#d4aa80"/>
  <line x1="156" y1="230" x2="128" y2="190" stroke="#7a5c44" stroke-width="8" stroke-linecap="round"/>
  <line x1="178" y1="218" x2="160" y2="175" stroke="#7a5c44" stroke-width="8" stroke-linecap="round"/>
  <line x1="204" y1="212" x2="196" y2="168" stroke="#7a5c44" stroke-width="8" stroke-linecap="round"/>
  <line x1="232" y1="210" x2="232" y2="166" stroke="#7a5c44" stroke-width="8" stroke-linecap="round"/>
  <line x1="258" y1="212" x2="266" y2="168" stroke="#7a5c44" stroke-width="8" stroke-linecap="round"/>
  <line x1="280" y1="218" x2="298" y2="175" stroke="#7a5c44" stroke-width="8" stroke-linecap="round"/>
  <ellipse cx="342" cy="268" rx="56" ry="44" fill="#d4aa80"/>
  <circle cx="366" cy="256" r="10" fill="#1a0a00"/>
  <circle cx="369" cy="253" r="4" fill="white"/>
  <circle cx="386" cy="272" r="9" fill="#e87060"/>
  <rect x="290" y="310" width="60" height="42" rx="6" fill="#FF7A30"/>
  <line x1="320" y1="310" x2="320" y2="352" stroke="#FFD93D" stroke-width="4"/>
  <line x1="290" y1="331" x2="350" y2="331" stroke="#FFD93D" stroke-width="4"/>
</svg>
